# xmcd
#
# Track frame offsets:
#	150
#	9635
#	18002
#	33875
#	43620
#	57947
#	70384
#	81759
#	94522
#	111632
#	121527
#	133284
#	142799
#	155544
#	167359
#	179591
#	193604
#	204039
#	214309
#	225291
#
# Disc length: 3256 seconds
#
# Revision: 1
# Processed by: cddbd v1.5.2PL0 Copyright (c) Steve Scherf et al.
# Submitted via: EasyCDDAExtractor 16.0.6.1
#
DISCID=010cb614
DTITLE=karl Denver - Sings Country
DYEAR=2001
DGENRE=Country
TTITLE0=am i that easy to forget
TTITLE1=californian zephyr
TTITLE2=careless love
TTITLE3=china doll
TTITLE4=dont talk of love
TTITLE5=dry eyes
TTITLE6=irish eyes
TTITLE7=is this the meaning
TTITLE8=let me come in
TTITLE9=lonesome traveller
TTITLE10=love me with all your heart
TTITLE11=love walked in
TTITLE12=marcheta
TTITLE13=maybe
TTITLE14=mexican rose
TTITLE15=my lovely world and you
TTITLE16=snow show thompson
TTITLE17=still
TTITLE18=wimeweh
TTITLE19=yelle
EXTD=
EXTT0=
EXTT1=
EXTT2=
EXTT3=
EXTT4=
EXTT5=
EXTT6=
EXTT7=
EXTT8=
EXTT9=
EXTT10=
EXTT11=
EXTT12=
EXTT13=
EXTT14=
EXTT15=
EXTT16=
EXTT17=
EXTT18=
EXTT19=
PLAYORDER=
